<svg width="138" height="24" viewBox="0 0 138 24" fill="none" xmlns="http://www.w3.org/2000/svg">
<path d="M34.4449 18.112L34.6557 15.2844L34.8666 11.0678L35.003 6.91943H34.3271H33.707H33.0869L30.8484 6.98764C30.898 6.05751 30.929 5.35061 30.9352 4.86694C32.7955 4.86694 34.7425 4.86694 36.7764 4.86694H40.2551H42.1154C42.0472 5.78467 42.0162 6.49157 42.0162 6.98764C40.8442 6.93183 39.728 6.90083 38.6553 6.90083H37.9112L37.8058 8.69288L37.5267 15.5138V16.6548C37.5267 17.1261 37.5267 17.6159 37.5267 18.1244H36.0571L34.4449 18.112Z" fill="white"/>
<path d="M42.8718 18.112L43.1509 13.511L43.2315 10.8384C43.2315 10.2865 43.2315 9.73466 43.2315 9.17658C43.2315 9.08357 43.2315 8.77352 43.2315 8.25885H44.5585H45.8668L45.8172 9.62304C46.0015 9.34556 46.2089 9.08419 46.4373 8.84173C46.803 8.48168 47.263 8.23232 47.7643 8.12243C48.2936 7.99011 48.8473 7.99011 49.3765 8.12243C49.3765 8.74252 49.3765 9.48662 49.4634 10.4106C49.1267 10.3128 48.7784 10.2607 48.4278 10.2555C48.0895 10.2488 47.753 10.3056 47.4357 10.423C47.1417 10.5372 46.8754 10.7127 46.6544 10.9376C46.4091 11.1833 46.2133 11.4738 46.0777 11.7933C45.9373 12.1301 45.8455 12.485 45.8048 12.8475C45.7552 13.1823 45.7118 13.759 45.6808 14.5713C45.6498 15.3837 45.625 16.1898 45.625 16.9773C45.625 17.2811 45.625 17.6594 45.625 18.1182H44.2794L42.8718 18.112Z" fill="white"/>
<path d="M64.5067 18.112C64.0933 16.7478 62.9461 13.4634 61.0652 8.25879H62.5348H63.8866L66.1499 15.6564L66.4599 14.8131L68.6489 9.27573C68.7481 9.0153 68.8783 8.65564 69.0333 8.25879H70.4471H71.8733L70.2983 11.6755L68.0102 16.8594L67.5017 18.0996H66.0383L64.5067 18.112Z" fill="white"/>
<path d="M81.3298 15.9107C81.243 16.2952 81.1251 16.9773 80.9701 17.9694C80.2694 18.112 79.6803 18.2174 79.2029 18.267C78.7249 18.3167 78.2448 18.3416 77.7643 18.3415C76.9984 18.3517 76.2342 18.2684 75.4886 18.0934C74.8368 17.9337 74.2342 17.6165 73.7337 17.1695C73.2281 16.7229 72.8441 16.1554 72.6175 15.5201C72.376 14.8629 72.2542 14.1677 72.2579 13.4676C72.2563 12.6779 72.3971 11.8944 72.6734 11.1546C72.9174 10.4589 73.3184 9.82871 73.8453 9.31299C74.328 8.85021 74.9118 8.50626 75.5506 8.30845C76.2014 8.10823 76.8788 8.00788 77.5596 8.0108C78.1879 8.01146 78.8134 8.09485 79.4199 8.25884C79.9753 8.40419 80.4878 8.68063 80.9143 9.06495C81.3291 9.44392 81.6551 9.90972 81.8692 10.4291C82.0934 10.9867 82.2051 11.5831 82.1979 12.184C82.1946 12.4985 82.1614 12.8121 82.0987 13.1203H74.9987C74.9987 13.356 74.9987 13.5482 74.9987 13.6908C74.9921 14.0981 75.0659 14.5026 75.2157 14.8814C75.3587 15.2354 75.5816 15.5515 75.8668 15.8053C76.1627 16.0595 76.5094 16.2477 76.8837 16.3572C77.2608 16.4764 77.654 16.5371 78.0495 16.537C78.5345 16.5351 79.0183 16.4874 79.4943 16.3944C80.1156 16.2715 80.7286 16.11 81.3298 15.9107ZM75.0483 11.998H79.5811C79.5937 11.7687 79.5937 11.5389 79.5811 11.3097C79.5558 11.136 79.5122 10.9656 79.4509 10.8012C79.3853 10.6199 79.2911 10.4504 79.1719 10.2989C79.0575 10.1566 78.9215 10.0332 78.7688 9.93308C78.6023 9.83432 78.4228 9.75919 78.2355 9.70984C78.0202 9.65889 77.7995 9.63391 77.5782 9.63543C77.3109 9.63621 77.0453 9.67804 76.7907 9.75945C76.5388 9.84246 76.3021 9.96603 76.09 10.1253C75.886 10.2731 75.7097 10.4557 75.5692 10.6648C75.4495 10.8457 75.3497 11.0391 75.2715 11.2415C75.184 11.4896 75.1095 11.7421 75.0483 11.998Z" fill="white"/>
<path d="M83.6611 18.112C83.7603 17.0206 83.8782 15.0549 84.0146 12.2273C84.151 9.39973 84.2378 6.94419 84.2688 4.8855H85.7074H87.1026L86.867 8.42L86.5321 16.3075L86.4949 18.112H85.1431H83.6611Z" fill="white"/>
<path d="M96.869 18.112L97.0798 15.2844L97.2906 11.0678L97.427 6.91943H96.7512H96.1311H95.511L93.2725 6.98764C93.3283 6.05751 93.3531 5.35061 93.3593 4.86694C95.2195 4.86694 97.1666 4.86694 99.2005 4.86694H102.679H104.539C104.471 5.78467 104.44 6.49157 104.44 6.98764C103.274 6.93183 102.152 6.90083 101.079 6.90083H100.335L100.23 8.69288L99.9508 15.5138V16.6548C99.9508 17.1261 99.9508 17.6159 99.9508 18.1244H98.475L96.869 18.112Z" fill="white"/>
<path d="M105.309 18.112C105.408 17.1446 105.476 16.3323 105.513 15.6812C105.584 14.6436 105.641 13.451 105.687 12.1033C105.732 10.7557 105.765 9.47414 105.786 8.25876H107.206H108.614C108.521 9.38112 108.452 10.4539 108.403 11.477C108.353 12.5002 108.31 13.6659 108.285 14.9805C108.26 16.2951 108.248 17.343 108.248 18.0809H106.828L105.309 18.112ZM105.836 6.57213C105.836 5.90863 105.879 5.39396 105.879 5.04051V4.73047H107.311C107.814 4.73047 108.285 4.73047 108.713 4.73047C108.713 4.89169 108.713 5.07772 108.676 5.28235L108.626 6.57213H107.274H105.836Z" fill="white"/>
<path d="M110.616 18.112C110.707 17.0165 110.802 15.3754 110.902 13.1885C111.001 11.0017 111.051 9.35845 111.051 8.25883H112.39H113.667L113.593 9.81525C113.767 9.55892 113.955 9.31256 114.157 9.07734C114.353 8.8689 114.578 8.6912 114.827 8.55027C115.123 8.37723 115.443 8.24775 115.776 8.16581C116.144 8.07152 116.523 8.02361 116.904 8.02319C117.187 8.02317 117.47 8.05226 117.747 8.11001C118.003 8.15942 118.253 8.23635 118.492 8.33944C118.701 8.43049 118.897 8.54938 119.074 8.69289C119.227 8.81674 119.363 8.96066 119.477 9.12075C119.618 9.34317 119.738 9.57766 119.837 9.82145C119.958 9.62675 120.088 9.4384 120.228 9.25717C120.369 9.08327 120.53 8.92526 120.705 8.7859C120.908 8.62079 121.134 8.48511 121.375 8.38284C121.639 8.26484 121.916 8.17746 122.2 8.12241C122.514 8.05987 122.834 8.02871 123.155 8.02939C123.698 8.02609 124.238 8.12061 124.748 8.30843C125.209 8.47543 125.609 8.77806 125.895 9.17656C126.188 9.61154 126.336 10.1282 126.317 10.6524C126.317 10.9624 126.317 11.4151 126.255 12.0166C126.193 12.618 126.156 13.5978 126.088 14.9558C126.019 16.3138 125.988 17.3679 125.982 18.112H124.742H123.235C123.291 17.2811 123.347 16.4068 123.403 15.4952L123.514 13.2753C123.551 12.7173 123.564 12.2398 123.564 11.8553C123.589 11.4927 123.514 11.1302 123.347 10.8074C123.222 10.5834 123.028 10.4052 122.795 10.2989C122.55 10.1968 122.288 10.1441 122.023 10.1441C121.758 10.1441 121.496 10.1968 121.251 10.2989C120.995 10.4281 120.77 10.6123 120.594 10.8384C120.384 11.0935 120.224 11.3859 120.122 11.7003C119.994 12.1494 119.913 12.6108 119.881 13.0769C119.831 13.666 119.794 14.4411 119.757 15.4084L119.695 18.0996H118.355H116.929C116.972 17.6035 117.034 16.5866 117.121 15.0488C117.208 13.511 117.245 12.4754 117.245 11.9483C117.248 11.7068 117.225 11.4657 117.177 11.229C117.128 11.0233 117.035 10.8306 116.904 10.6648C116.774 10.4973 116.606 10.3634 116.414 10.2741C116.209 10.1856 115.987 10.1432 115.763 10.1501C115.326 10.1455 114.902 10.3022 114.573 10.5904C114.218 10.9146 113.96 11.3311 113.829 11.7933C113.612 12.7458 113.498 13.7186 113.487 14.6953C113.413 16.1277 113.382 17.2749 113.382 18.1182H112.036L110.616 18.112Z" fill="white"/>
<path d="M137.125 15.9107C137.038 16.2952 136.92 16.9772 136.765 17.9694C136.071 18.112 135.482 18.2174 135.004 18.267C134.524 18.3167 134.042 18.3416 133.56 18.3414C132.796 18.3523 132.034 18.269 131.29 18.0934C130.635 17.9347 130.029 17.616 129.527 17.1658C129.025 16.7157 128.642 16.1481 128.413 15.5138C128.174 14.8558 128.053 14.1612 128.053 13.4614C128.054 12.6713 128.197 11.8878 128.475 11.1484C128.708 10.4565 129.098 9.82815 129.616 9.31297C130.101 8.85046 130.687 8.50663 131.327 8.30843C131.976 8.10865 132.651 8.0083 133.33 8.01079C133.958 8.01144 134.584 8.09484 135.19 8.25882C135.748 8.40416 136.262 8.68054 136.691 9.06494C137.117 9.4407 137.454 9.90674 137.677 10.4291C137.899 10.9871 138.009 11.5835 137.999 12.184C137.999 12.4987 137.966 12.8125 137.9 13.1203H130.8C130.8 13.3559 130.8 13.5482 130.8 13.6908C130.796 14.0985 130.871 14.503 131.023 14.8814C131.166 15.2353 131.389 15.5515 131.675 15.8053C131.969 16.062 132.316 16.2504 132.691 16.3572C133.066 16.4764 133.458 16.537 133.851 16.537C134.338 16.5351 134.824 16.4874 135.302 16.3944C135.919 16.2712 136.528 16.1096 137.125 15.9107ZM130.856 11.9979H135.389C135.392 11.7681 135.381 11.5383 135.358 11.3097C135.333 11.136 135.289 10.9656 135.228 10.8012C135.162 10.6213 135.07 10.4521 134.955 10.2989C134.848 10.1585 134.72 10.0352 134.577 9.93306C134.408 9.83434 134.226 9.75923 134.037 9.70983C133.834 9.66158 133.626 9.63662 133.417 9.63542C133.148 9.63624 132.88 9.67806 132.623 9.75943C132.371 9.84244 132.135 9.96601 131.923 10.1253C131.722 10.2748 131.548 10.4572 131.408 10.6648C131.283 10.8429 131.183 11.0368 131.11 11.2414C131.006 11.4866 130.921 11.7396 130.856 11.9979Z" fill="white"/>
<path d="M51.5406 17.9942C52.1814 18.238 52.8644 18.3518 53.5497 18.329C53.5497 18.329 56.2905 18.1058 56.6501 18.0934H58.0329H59.3909C59.3909 16.4873 59.4715 14.9247 59.5769 13.4179C59.6823 11.9111 59.732 10.9748 59.732 10.6027C59.7715 10.0375 59.5891 9.47914 59.2235 9.04629C58.8425 8.65554 58.3589 8.3804 57.8283 8.25258C57.1911 8.08375 56.5342 8.00034 55.875 8.00455C55.2239 8.00613 54.5735 8.04963 53.9279 8.13477C53.1455 8.23707 52.3693 8.38197 51.6026 8.56883C51.5406 8.95328 51.5034 9.23232 51.4786 9.42455C51.4538 9.61677 51.398 9.93302 51.3112 10.3981C52.5467 9.88377 53.8673 9.60409 55.2053 9.57337C55.498 9.57097 55.7898 9.6064 56.0734 9.67878C56.3093 9.73921 56.5239 9.86368 56.6935 10.0384C56.8484 10.2079 56.9346 10.429 56.9354 10.6585C56.936 10.7889 56.9086 10.918 56.8547 11.0368C56.7889 11.1671 56.7032 11.2864 56.6005 11.3902C56.4796 11.5055 56.3389 11.598 56.1851 11.6631C55.9846 11.752 55.7772 11.8246 55.565 11.8801C55.2983 11.9545 55.0441 12.0165 54.7961 12.0723C54.0418 12.2324 53.2983 12.4395 52.5699 12.6924C52.1143 12.8406 51.6805 13.0492 51.2802 13.3125C51.0096 13.4976 50.7655 13.7188 50.5547 13.9698C50.3654 14.1879 50.2201 14.4406 50.1268 14.7139C50.0423 14.9719 50.0025 15.2424 50.009 15.5138C50.0136 16.0185 50.1413 16.5145 50.381 16.9586C50.6319 17.4309 51.0431 17.7981 51.5406 17.9942ZM52.725 15.1107C52.7924 14.9537 52.8917 14.8122 53.0164 14.6953C53.1682 14.5549 53.3369 14.4341 53.5187 14.3356C53.7317 14.2227 53.9536 14.1273 54.1822 14.0504C54.424 13.9698 54.7527 13.8706 55.1619 13.759C55.5712 13.6473 55.8502 13.5605 56.0114 13.5047C56.1628 13.4567 56.31 13.3966 56.4517 13.3249C56.646 13.2254 56.8326 13.1114 57.0098 12.9838L56.8857 15.4022C56.8857 15.6936 56.8857 15.9789 56.8361 16.2517V16.4935C56.2905 16.4935 55.2797 16.5866 54.3558 16.6734C54.057 16.7063 53.7555 16.7063 53.4567 16.6734C53.2159 16.5972 53.0012 16.4555 52.8366 16.2641C52.6766 16.0639 52.5931 15.8133 52.6009 15.5572C52.613 15.4018 52.6551 15.2501 52.725 15.1107Z" fill="white"/>
<path d="M20.8835 6.52881L21.3237 6.09475C21.38 6.03945 21.4189 5.96884 21.4354 5.89168C21.4519 5.81452 21.4454 5.7342 21.4168 5.66069L20.5176 3.34156L21.8074 2.05798C22.043 1.82235 22.2105 1.30148 21.9872 1.07825C21.764 0.855015 21.2493 1.02864 21.0137 1.26427L19.7239 2.54785L17.38 1.64873C17.3073 1.62135 17.2282 1.61557 17.1523 1.63207C17.0764 1.64857 17.0069 1.68665 16.9521 1.74174L16.5119 2.1882L18.5582 3.69501L16.9583 5.28864L16.4313 5.08401C16.3591 5.05586 16.2804 5.04908 16.2046 5.06447C16.1287 5.07987 16.0588 5.11679 16.0034 5.17082L15.8484 5.32584L15.5693 5.61108L16.1894 6.06375L16.6483 6.4048L16.9831 6.86366L17.4358 7.48375L17.721 7.19851L17.8823 7.03728C17.9373 6.98251 17.9754 6.91299 17.9919 6.83709C18.0084 6.76118 18.0026 6.68212 17.9753 6.60942L17.7644 6.07615L19.3643 4.48252L20.8835 6.52881Z" fill="white"/>
<path d="M15.8422 7.89299L12.3139 12.2894C12.133 12.5155 11.8697 12.6605 11.5819 12.6925C11.294 12.7245 11.0053 12.6408 10.7792 12.4599C10.553 12.279 10.408 12.0157 10.3761 11.7279C10.3441 11.4401 10.4278 11.1513 10.6087 10.9252C10.6602 10.8632 10.7184 10.807 10.7823 10.7578L15.1787 7.22949C15.3895 7.45272 15.6128 7.68216 15.8422 7.89299Z" fill="white"/>
<path d="M12.934 23.0479C11.1964 23.2551 9.4344 23.0653 7.78077 22.4927C6.12714 21.9201 4.62501 20.9798 3.38755 19.7424C2.1501 18.5051 1.20958 17.003 0.63687 15.3494C0.064157 13.6958 -0.125821 11.9339 0.0812501 10.1962C0.288321 8.45854 0.88704 6.79053 1.8323 5.31784C2.77756 3.84515 4.04471 2.60618 5.53829 1.69428C7.03186 0.782377 8.71291 0.221321 10.4548 0.05338C12.1967 -0.114561 13.9539 0.114994 15.5942 0.72475C15.4075 1.23512 15.0531 1.66702 14.589 1.94976C14.1249 2.2325 13.5786 2.34935 13.0395 2.28117C12.4082 2.18049 11.7681 2.14517 11.1296 2.17575C9.30614 2.26003 7.54675 2.87373 6.06646 3.94182C4.58617 5.00991 3.44912 6.48613 2.79429 8.19003C2.13947 9.89393 1.99523 11.7517 2.37922 13.5362C2.76321 15.3208 3.65879 16.9548 4.95648 18.2386C6.25418 19.5224 7.89777 20.4003 9.68637 20.765C11.475 21.1297 13.3311 20.9654 15.0278 20.2922C16.7245 19.6191 18.1884 18.4661 19.2404 16.9744C20.2925 15.4827 20.8872 13.7168 20.9518 11.8925C20.9749 11.2701 20.9354 10.6468 20.834 10.0323C20.7578 9.49059 20.8695 8.93917 21.1505 8.46983C21.4314 8.00048 21.8646 7.64152 22.378 7.4527C23.0016 9.09554 23.2428 10.8588 23.0834 12.6088C22.9239 14.3588 22.368 16.0494 21.4578 17.5525C20.5475 19.0556 19.3069 20.3316 17.8301 21.2838C16.3532 22.236 14.6788 22.8393 12.934 23.0479Z" fill="white"/>
</svg>
